<?xml version="1.0" standalone="no"?>
<!DOCTYPE svg PUBLIC "-//W3C//DTD SVG 20010904//EN"
 "http://www.w3.org/TR/2001/REC-SVG-20010904/DTD/svg10.dtd">
<svg version="1.0" xmlns="http://www.w3.org/2000/svg"
 width="720.000000pt" height="720.000000pt" viewBox="0 0 720.000000 720.000000"
 preserveAspectRatio="xMidYMid meet">
<metadata>
Created by potrace 1.11, written by Peter Selinger 2001-2013
</metadata>
<g transform="translate(0.000000,720.000000) scale(0.100000,-0.100000)"
fill="#000000" stroke="none">
<path d="M6179 7005 c0 -11 -1 -66 -1 -122 l0 -103 -32 -1 c-65 -3 -193 -7
-233 -8 l-43 -1 0 -39 c0 -22 5 -41 13 -43 6 -3 76 -3 153 -1 l142 4 0 -131 0
-130 -81 -42 c-92 -48 -176 -121 -215 -186 -34 -59 -39 -149 -11 -203 71 -140
299 -144 371 -6 20 39 22 56 22 214 l0 172 66 20 c258 77 440 31 478 -121 19
-76 -6 -176 -54 -219 -86 -75 -235 -67 -320 19 l-31 31 -22 -29 c-11 -16 -21
-33 -21 -38 0 -15 64 -70 109 -93 58 -30 183 -35 256 -11 65 21 143 99 167
164 26 73 20 189 -13 253 -32 62 -105 120 -179 142 -82 25 -215 22 -327 -6
-51 -13 -96 -23 -100 -22 -12 2 -10 231 2 232 10 1 26 3 85 15 19 3 49 8 65
11 17 3 44 11 62 18 30 13 31 15 23 50 -11 47 -14 50 -47 36 -26 -10 -163 -41
-184 -41 -5 0 -9 43 -9 96 0 87 2 97 22 114 23 18 22 18 -45 22 -61 3 -67 1
-68 -17z m0 -800 c2 -156 -9 -193 -64 -219 -72 -34 -148 -4 -174 70 -13 38
-13 44 11 96 27 59 78 108 164 158 27 16 52 29 56 29 3 1 7 -60 7 -134z"/>
<path d="M701 6894 c-142 -24 -294 -124 -372 -245 -94 -146 -115 -360 -49
-503 34 -74 95 -118 166 -118 177 0 315 244 375 662 8 58 17 88 28 95 13 7 8
12 -24 22 -39 12 -38 13 35 9 248 -13 395 -175 386 -426 -5 -151 -74 -259
-217 -338 -41 -23 -180 -72 -204 -72 -13 0 -11 -8 12 -40 33 -47 39 -47 166 2
189 72 304 199 334 366 11 65 5 199 -12 259 -72 249 -320 379 -624 327z m34
-116 c-2 -18 -7 -55 -10 -83 -24 -205 -90 -418 -159 -508 -14 -18 -42 -42 -63
-54 -159 -87 -236 235 -108 453 53 91 152 169 260 206 75 26 86 24 80 -14z"/>
<path d="M6636 6826 c-9 -19 -16 -37 -16 -40 0 -3 17 -13 38 -23 57 -26 162
-92 208 -129 l42 -34 27 36 c22 29 25 37 14 51 -28 33 -223 152 -275 167 -17
5 -25 0 -38 -28z"/>
<path d="M2450 5672 l-22 -18 62 -60 c33 -34 71 -75 83 -92 22 -30 23 -30 46
-11 12 10 21 23 19 27 -7 18 -102 122 -133 147 -32 24 -34 24 -55 7z"/>
<path d="M4875 5667 c-2 -12 -14 -80 -26 -152 -11 -71 -26 -135 -32 -142 -7
-6 -43 -14 -82 -17 -38 -4 -79 -8 -90 -11 -11 -2 -32 -4 -47 -4 -25 -1 -28 -5
-28 -33 0 -59 5 -61 119 -45 56 7 104 10 107 5 6 -9 -47 -197 -83 -293 -34
-92 -93 -217 -131 -282 l-31 -52 24 -15 c52 -34 63 -27 111 64 24 47 61 130
83 185 42 107 121 359 121 387 0 24 7 26 109 33 81 6 97 4 136 -15 88 -43 116
-182 74 -384 -43 -214 -134 -266 -289 -166 -33 22 -64 40 -69 40 -4 0 -13 -17
-19 -37 -11 -35 -10 -39 16 -60 61 -49 143 -83 200 -83 174 0 265 159 266 465
1 126 -2 145 -23 193 -27 60 -73 105 -126 122 -44 15 -140 19 -201 10 -31 -5
-44 -3 -44 5 0 7 11 67 25 135 14 68 25 124 25 125 0 2 10 5 22 8 29 8 20 15
-28 22 -21 4 -49 8 -61 10 -17 3 -24 -2 -28 -18z"/>
<path d="M2254 5621 c-22 -17 -22 -17 43 -80 35 -35 71 -74 80 -87 18 -29 34
-30 57 -5 16 17 13 22 -55 95 -87 93 -97 100 -125 77z"/>
<path d="M1846 5598 c-3 -13 -11 -57 -17 -98 -7 -41 -13 -77 -14 -80 -1 -3 -5
-28 -9 -57 -4 -29 -13 -56 -19 -61 -7 -5 -65 -15 -130 -22 l-117 -12 2 -45 3
-45 55 7 c102 11 125 15 148 20 30 7 29 -1 -14 -142 -48 -159 -106 -304 -164
-408 l-48 -85 40 -21 c22 -11 44 -17 48 -12 5 4 31 53 58 108 70 140 125 293
187 518 9 31 22 57 28 57 7 0 49 3 94 6 108 9 160 -14 195 -84 42 -86 25 -323
-33 -446 -48 -103 -146 -111 -269 -22 l-48 34 -18 -40 -18 -40 25 -19 c190
-148 364 -110 433 95 44 130 57 346 27 447 -17 56 -65 114 -113 137 -47 23
-138 32 -219 22 l-50 -7 5 36 c3 20 14 80 26 135 11 54 20 99 20 101 0 1 10 5
22 8 31 8 18 17 -33 23 -24 3 -52 7 -61 10 -12 4 -19 -2 -22 -18z"/>
<path d="M5347 5516 l-29 -25 65 -60 c78 -74 147 -174 187 -274 16 -41 30 -80
30 -86 0 -14 16 -14 57 1 23 8 33 18 33 33 0 30 -38 119 -85 200 -42 73 -191
235 -216 235 -8 0 -27 -11 -42 -24z"/>
<path d="M2343 5358 c-18 -11 -33 -23 -33 -27 0 -4 16 -23 36 -42 84 -79 179
-240 205 -345 l12 -52 31 13 c17 6 39 15 48 18 16 6 16 10 1 59 -21 73 -49
131 -98 208 -41 64 -151 191 -164 189 -3 0 -21 -10 -38 -21z"/>
<path d="M3560 4140 c-15 -8 -82 -14 -310 -26 -63 -3 -118 -9 -121 -12 -3 -4
-4 -26 -1 -50 4 -41 6 -43 31 -38 32 7 92 13 231 21 58 4 108 9 113 12 18 11
17 -34 -6 -158 -33 -174 -37 -193 -45 -201 -4 -3 -34 -9 -67 -12 -163 -15
-278 -72 -333 -165 -36 -61 -39 -174 -6 -236 53 -100 218 -115 315 -28 47 43
107 158 139 270 l24 82 35 -5 c61 -9 153 -34 229 -62 87 -32 86 -27 15 -172
-38 -79 -60 -109 -127 -175 l-82 -80 34 -23 35 -23 38 27 c89 61 206 236 234
347 4 15 12 27 19 27 6 -1 52 -21 101 -45 50 -24 93 -41 97 -37 3 4 13 23 21
43 l15 37 -81 39 c-45 22 -93 44 -105 48 -26 8 -26 5 1 130 8 39 18 86 21 106
5 26 13 39 29 43 31 9 6 22 -59 31 l-51 6 -12 -73 c-22 -124 -43 -199 -55
-194 -6 3 -52 18 -103 35 -88 29 -123 38 -187 47 -16 2 -31 6 -34 8 -2 3 5 47
17 98 12 51 23 107 26 123 2 17 6 39 9 50 2 11 7 43 11 72 4 29 13 54 21 57
23 9 16 21 -24 43 -24 14 -42 19 -52 13z m-130 -543 c0 -17 -44 -147 -67 -197
-33 -73 -77 -116 -128 -126 -69 -13 -107 11 -125 76 -29 107 53 202 202 235
57 12 118 19 118 12z"/>
<path d="M2450 2782 l-23 -19 48 -44 c26 -24 65 -65 85 -90 36 -46 37 -46 60
-29 22 17 23 19 8 41 -17 27 -101 115 -134 142 -20 17 -22 17 -44 -1z"/>
<path d="M2253 2730 l-23 -18 48 -44 c27 -23 64 -62 83 -85 38 -48 49 -51 73
-24 16 17 13 22 -55 95 -88 94 -97 100 -126 76z"/>
<path d="M1849 2727 c0 -1 -3 -15 -5 -32 -9 -60 -45 -260 -50 -276 -2 -9 -10
-16 -17 -16 -19 -1 -150 -15 -167 -18 -8 -2 -27 -4 -42 -4 -25 -1 -28 -5 -28
-33 0 -53 11 -62 66 -53 27 4 65 9 84 11 19 2 46 6 58 9 22 5 23 4 17 -27 -31
-155 -129 -411 -211 -550 -19 -33 -34 -61 -32 -62 40 -21 83 -35 88 -29 52 58
190 407 235 593 10 41 20 78 24 82 3 3 47 10 98 13 82 7 97 5 137 -14 65 -32
90 -87 92 -206 2 -107 -24 -246 -59 -313 -49 -94 -134 -104 -247 -31 -34 22
-65 37 -69 34 -5 -2 -14 -19 -21 -36 -12 -29 -11 -32 16 -54 172 -140 356
-103 422 84 37 104 46 165 47 301 0 128 -1 138 -28 193 -50 100 -126 138 -267
130 -41 -2 -81 -6 -88 -8 -16 -6 -13 19 17 164 15 73 24 99 43 113 17 13 19
18 8 19 -28 3 -55 6 -87 12 -18 3 -33 5 -34 4z"/>
<path d="M4876 2712 c-3 -9 -8 -37 -11 -62 -3 -25 -7 -52 -9 -60 -1 -8 -8 -50
-16 -92 -7 -43 -18 -82 -24 -87 -6 -5 -45 -12 -86 -16 -41 -5 -84 -9 -95 -11
-11 -1 -30 -3 -43 -3 -21 -1 -23 -5 -21 -47 l3 -46 45 6 c108 15 181 18 181 9
0 -23 -71 -247 -109 -343 -22 -58 -63 -144 -90 -193 l-49 -87 40 -21 c22 -11
44 -17 49 -12 16 17 108 212 143 307 20 54 54 159 76 233 21 74 40 137 42 139
2 2 45 6 95 10 82 6 96 4 137 -15 34 -17 50 -33 68 -69 46 -93 21 -365 -43
-468 -47 -77 -138 -81 -244 -10 l-64 43 -16 -40 c-16 -40 -16 -40 12 -64 59
-48 143 -83 201 -83 124 0 200 75 243 240 19 74 20 81 25 185 5 86 1 137 -19
223 -2 6 -17 32 -34 56 -53 74 -147 103 -282 86 -29 -4 -54 -3 -57 1 -2 5 7
65 21 135 14 70 25 128 25 130 0 1 10 4 22 7 29 8 20 15 -28 22 -21 4 -49 8
-61 10 -14 2 -24 -2 -27 -13z"/>
<path d="M5347 2556 l-29 -23 57 -54 c98 -92 168 -199 208 -316 l23 -70 47 21
46 21 -18 50 c-27 77 -51 124 -95 190 -44 66 -178 205 -198 205 -7 -1 -26 -11
-41 -24z"/>
<path d="M2347 2471 c-15 -10 -30 -21 -33 -24 -4 -4 20 -35 52 -69 74 -80 134
-180 171 -286 15 -45 33 -82 39 -82 6 0 28 7 47 15 l36 15 -16 52 c-19 68 -75
179 -121 243 -36 51 -132 156 -142 154 -3 0 -17 -8 -33 -18z"/>
<path d="M6179 1270 c0 -25 0 -80 0 -122 l2 -78 -33 -1 c-18 -1 -80 -3 -138
-4 -58 -2 -113 -4 -122 -4 -14 -1 -18 -10 -18 -40 0 -22 5 -41 13 -43 6 -3 75
-3 153 -1 l141 4 1 -131 0 -130 -80 -42 c-196 -102 -287 -252 -230 -381 26
-59 86 -103 152 -112 103 -14 177 18 219 95 24 42 25 53 25 217 l1 173 30 10
c315 99 509 37 520 -166 3 -58 -25 -134 -61 -166 -83 -73 -241 -63 -321 20
l-29 31 -26 -33 -27 -33 37 -36 c66 -63 115 -81 217 -82 138 0 217 43 273 150
22 43 26 63 27 140 0 83 -3 95 -31 145 -62 110 -162 156 -329 153 -68 -1 -129
-9 -191 -26 l-91 -24 1 119 c0 72 5 118 11 119 5 0 19 2 30 4 11 2 38 6 60 10
22 3 65 13 96 21 l56 16 -9 41 c-5 23 -11 43 -13 45 -2 2 -25 -3 -52 -11 -57
-19 -164 -39 -171 -32 -3 2 -4 46 -3 96 2 81 5 94 24 109 21 18 21 18 -46 22
l-67 3 -1 -45z m0 -775 c1 -162 -8 -193 -64 -222 -29 -16 -98 -10 -130 11 -63
41 -65 122 -4 205 25 36 168 141 191 141 4 0 7 -61 7 -135z"/>
<path d="M768 1175 c-2 -1 -24 -5 -49 -8 -212 -25 -406 -200 -463 -417 -19
-71 -14 -238 8 -301 9 -25 30 -62 47 -82 111 -135 283 -72 384 138 55 114 104
288 121 425 10 83 15 105 30 121 14 15 12 18 -23 28 -34 9 -30 10 37 7 241
-13 399 -182 389 -418 -9 -212 -138 -345 -401 -414 -5 -1 -15 -2 -24 -3 -12
-1 -9 -9 13 -39 15 -20 28 -39 29 -40 6 -9 126 33 202 69 179 86 268 222 276
424 9 243 -125 431 -351 489 -53 14 -216 29 -225 21z m-34 -142 c-40 -381
-155 -643 -282 -643 -69 0 -117 85 -121 210 -5 212 121 392 324 462 80 28 85
26 79 -29z"/>
<path d="M6634 1111 l-21 -38 77 -37 c42 -21 109 -61 148 -91 l70 -53 30 37
30 37 -54 40 c-59 43 -207 128 -239 138 -16 4 -24 -3 -41 -33z"/>
</g>
</svg>
